<?xml version="1.0" standalone="no"?><!DOCTYPE svg PUBLIC "-//W3C//DTD SVG 1.1//EN" "http://www.w3.org/Graphics/SVG/1.1/DTD/svg11.dtd"><svg t="1508505149891" class="icon" style="" viewBox="0 0 2087 1024" version="1.1" xmlns="http://www.w3.org/2000/svg" p-id="1759" xmlns:xlink="http://www.w3.org/1999/xlink" width="100" height="50"><defs><style type="text/css"></style></defs><path d="M1354.284 365.492h-313.968l-96.364-51.81v-146.102l617.568-56.992v190.661l-207.238 40.412v23.832z" p-id="1760" fill="#d81e06"></path><path d="M352.285 567.089l1415.438 2.532-0.237-263.193-405.948 89.112h-590.629l-418.623 111.909c-24.659 9.976-32.834 59.64 0 59.64z" p-id="1761" fill="#d81e06"></path><path d="M755.013 685.884c0 50.269-40.681 91.054-90.95 91.18-50.269 0.126-91.155-40.456-91.409-90.723-0.252-50.267 40.227-91.256 90.496-91.634 50.264-0.38 91.355 39.997 91.861 90.261M960.24 685.884c0 50.269-40.683 91.054-90.952 91.18-50.267 0.126-91.155-40.456-91.409-90.723-0.249-50.267 40.229-91.256 90.496-91.634 50.267-0.38 91.358 39.997 91.861 90.261M1161.867 685.884c0 50.269-40.683 91.054-90.95 91.18-50.269 0.126-91.157-40.456-91.409-90.723-0.252-50.267 40.227-91.256 90.493-91.634 50.267-0.38 91.36 39.997 91.864 90.261M1368.298 685.884c0 50.269-40.683 91.054-90.952 91.18-50.267 0.126-91.155-40.456-91.409-90.723-0.252-50.267 40.227-91.256 90.496-91.634 50.267-0.38 91.358 39.997 91.861 90.261z" p-id="1762" fill="#d81e06"></path><path d="M434.645 595.929l-42.514 1.946c-23.676 58.896-3.957 112.788 61.129 152.684 73.345 44.954 161.474 88.243 187 88.915l867.194 0.277c25.526-0.669 113.655-43.959 187-88.915 65.083-39.893 84.805-93.924 61.129-152.822l-42.514-1.805c12.794 55.107 23.834 92.299-55.848 130.038-65.219 30.886-134.158 67.654-144.906 69.882l-876.922-0.141c-10.744-2.223-79.544-39.132-144.763-70.020-79.683-37.737-68.781-74.93-55.987-130.038zM331.037 195.622v60.405l592.168 20.137v-81.456l-592.168 0.914z" p-id="1763" fill="#d81e06"></path><path d="M1573.128 690.653c-0.002 50.267-40.686 91.054-90.955 91.18-50.267 0.126-91.155-40.456-91.409-90.723-0.249-50.267 40.229-91.256 90.496-91.637 50.267-0.378 91.358 39.997 91.861 90.263M1699.542 648.278c0 28.655-23.192 51.904-51.842 51.976-28.655 0.074-51.963-23.061-52.107-51.714-0.143-28.653 22.93-52.020 51.583-52.235 28.653-0.215 52.077 22.799 52.363 51.452M551.383 648.278c0 28.655-23.192 51.904-51.842 51.976-28.655 0.074-51.963-23.061-52.107-51.714-0.143-28.653 22.93-52.020 51.583-52.235 28.653-0.215 52.077 22.799 52.363 51.452z" p-id="1764" fill="#d81e06"></path></svg>